<?xml version="1.0" standalone="no"?>
<!DOCTYPE svg PUBLIC "-//W3C//DTD SVG 20010904//EN"
 "http://www.w3.org/TR/2001/REC-SVG-20010904/DTD/svg10.dtd">
<svg version="1.0" xmlns="http://www.w3.org/2000/svg"
 width="458.000000pt" height="150.000000pt" viewBox="0 0 458.000000 150.000000"
 preserveAspectRatio="xMidYMid meet">

<g transform="translate(0.000000,150.000000) scale(0.100000,-0.100000)"
fill="#000000" stroke="none">
<path d="M1360 750 c0 -493 3 -750 10 -750 7 0 10 257 10 750 0 493 -3 750
-10 750 -7 0 -10 -257 -10 -750z"/>
<path d="M243 1365 c-11 -8 -24 -27 -27 -41 -18 -71 60 -128 126 -93 33 17 68
-6 68 -46 0 -42 35 -75 81 -75 19 0 40 5 47 12 15 15 65 -10 58 -29 -7 -18 11
-64 32 -79 20 -16 66 -18 92 -4 32 17 70 -7 70 -45 0 -68 91 -102 138 -52 32
34 30 89 -4 116 -30 23 -61 26 -97 10 -36 -16 -67 3 -67 42 0 41 -39 79 -83
79 -18 0 -38 -5 -45 -12 -9 -9 -18 -9 -37 0 -20 9 -25 19 -25 46 0 59 -63 92
-123 65 -35 -16 -67 3 -67 40 0 45 -35 81 -79 81 -20 0 -46 -7 -58 -15z"/>
<path d="M1670 1205 l0 -165 75 0 c42 0 91 6 109 14 67 28 100 115 76 201 -22
78 -87 115 -202 115 l-58 0 0 -165z m195 102 c59 -59 59 -155 1 -213 -26 -26
-42 -33 -93 -39 -34 -4 -67 -4 -72 0 -7 4 -11 59 -11 146 l0 139 71 0 c67 0
73 -2 104 -33z"/>
<path d="M2020 1205 c0 -140 2 -165 15 -165 13 0 15 25 15 165 0 140 -2 165
-15 165 -13 0 -15 -25 -15 -165z"/>
<path d="M2217 1349 c-95 -50 -114 -178 -40 -260 63 -70 164 -75 234 -11 34
30 59 80 59 120 0 9 -25 12 -90 12 -53 0 -90 -4 -90 -10 0 -6 32 -10 76 -10
l76 0 -6 -27 c-29 -123 -197 -144 -258 -33 -24 44 -20 119 9 158 44 61 131 77
190 35 68 -48 94 -52 52 -7 -51 56 -142 70 -212 33z"/>
<path d="M2550 1205 c0 -140 2 -165 15 -165 13 0 15 25 15 165 0 140 -2 165
-15 165 -13 0 -15 -25 -15 -165z"/>
<path d="M2665 1360 c-4 -6 12 -10 39 -10 l46 0 0 -155 c0 -131 2 -155 15
-155 13 0 15 24 15 155 l0 155 45 0 c25 0 45 5 45 10 0 6 -40 10 -99 10 -56 0
-103 -4 -106 -10z"/>
<path d="M3015 1353 c-11 -30 -76 -204 -95 -260 -15 -41 -16 -53 -6 -53 7 0
20 18 29 40 l15 40 77 0 76 0 17 -40 c9 -22 23 -40 30 -40 16 0 18 -8 -52 180
-52 142 -74 174 -91 133z m60 -122 l31 -90 -68 -3 c-46 -2 -68 1 -68 8 0 7 11
43 25 80 14 38 28 75 30 82 9 26 21 8 50 -77z"/>
<path d="M3250 1205 l0 -165 82 0 c45 0 78 3 74 7 -4 4 -33 8 -64 8 l-57 0 -3
158 c-2 130 -5 157 -17 157 -13 0 -15 -26 -15 -165z"/>
<path d="M64 1266 c-35 -15 -44 -32 -44 -81 0 -58 63 -91 123 -64 36 16 67 -3
67 -42 0 -60 64 -95 123 -68 38 17 67 -3 67 -46 0 -58 63 -91 123 -64 36 16
67 -3 67 -42 0 -59 74 -99 130 -69 42 23 44 105 2 136 -20 16 -66 18 -92 4
-32 -17 -70 7 -70 45 0 42 -35 75 -81 75 -19 0 -40 -5 -45 -10 -8 -8 -19 -7
-37 1 -21 10 -27 19 -27 46 0 45 -30 73 -78 73 -21 0 -43 -5 -48 -10 -8 -8
-19 -7 -37 1 -21 9 -27 19 -27 44 0 57 -61 94 -116 71z"/>
<path d="M1668 735 c-2 -127 0 -165 10 -165 9 0 12 40 12 165 0 219 -18 219
-22 0z"/>
<path d="M1800 735 c0 -143 2 -165 16 -165 13 0 15 18 12 135 -2 74 0 135 4
135 3 0 47 -61 98 -135 50 -74 97 -135 105 -135 13 0 15 27 15 165 0 144 -2
165 -16 165 -14 0 -15 -18 -12 -140 2 -77 1 -140 -2 -140 -3 0 -47 63 -98 140
-50 77 -99 140 -107 140 -13 0 -15 -25 -15 -165z"/>
<path d="M2160 735 c0 -125 3 -165 13 -165 9 0 11 32 9 135 -2 77 1 135 6 135
5 0 49 -61 98 -135 121 -183 124 -182 124 30 0 139 -2 165 -15 165 -12 0 -15
-25 -17 -142 l-3 -141 -94 141 c-52 78 -100 142 -107 142 -11 0 -14 -33 -14
-165z"/>
<path d="M2595 886 c-37 -16 -82 -67 -91 -102 -11 -42 2 -124 23 -152 69 -92
216 -88 280 8 28 40 31 125 7 176 -33 70 -141 104 -219 70z m129 -20 c93 -39
110 -175 31 -245 -31 -27 -44 -31 -90 -31 -48 0 -60 4 -91 33 -122 111 -2 306
150 243z"/>
<path d="M2884 883 c80 -215 123 -312 138 -313 12 0 33 41 78 158 35 86 65
161 67 165 3 5 -3 7 -12 5 -13 -2 -34 -43 -71 -142 -52 -135 -61 -154 -67
-145 -2 2 -27 68 -57 147 -35 95 -57 142 -67 142 -10 0 -13 -6 -9 -17z"/>
<path d="M3315 888 c-2 -7 -29 -80 -60 -162 -30 -82 -55 -151 -55 -153 0 -2 6
-3 13 -3 8 0 21 18 30 40 l15 40 77 0 77 0 15 -40 c9 -22 22 -40 30 -40 7 0
13 1 13 3 0 1 -27 74 -59 162 -39 106 -65 161 -75 163 -9 2 -18 -2 -21 -10z
m54 -116 c17 -46 31 -88 31 -93 0 -5 -31 -9 -69 -9 l-69 0 30 83 c16 45 32 88
34 96 6 20 10 14 43 -77z"/>
<path d="M3500 890 c0 -5 20 -10 45 -10 l45 0 0 -155 c0 -131 2 -155 15 -155
13 0 15 24 15 155 l0 155 45 0 c25 0 45 5 45 10 0 6 -42 10 -105 10 -63 0
-105 -4 -105 -10z"/>
<path d="M3780 735 c0 -140 2 -165 15 -165 13 0 15 25 15 165 0 140 -2 165
-15 165 -13 0 -15 -25 -15 -165z"/>
<path d="M3995 886 c-141 -63 -120 -277 32 -315 61 -16 117 1 164 47 78 79 54
219 -45 266 -41 19 -110 20 -151 2z m146 -29 c64 -42 86 -124 52 -194 -46 -97
-199 -98 -249 -2 -21 42 -15 130 12 160 54 61 127 75 185 36z"/>
<path d="M4328 735 c-2 -127 0 -165 10 -165 9 0 12 34 12 135 0 74 3 135 8
135 4 0 47 -61 96 -135 122 -185 126 -184 126 30 0 139 -2 165 -15 165 -12 0
-15 -25 -17 -142 l-3 -142 -95 142 c-52 78 -100 141 -107 142 -9 0 -13 -44
-15 -165z"/>
<path d="M425 815 c-52 -51 -17 -135 56 -135 52 0 79 27 79 79 0 73 -84 108
-135 56z"/>
<path d="M1777 426 c-74 -27 -107 -76 -107 -156 0 -70 23 -115 75 -145 79 -47
189 -24 234 48 30 49 29 142 -2 187 -43 64 -128 92 -200 66z m147 -60 c46 -47
55 -100 27 -160 -28 -56 -72 -81 -131 -73 -98 13 -148 129 -92 215 22 34 61
51 114 52 41 0 52 -5 82 -34z"/>
<path d="M2090 265 c0 -158 1 -165 20 -165 18 0 20 8 22 133 l3 132 89 -132
c122 -183 126 -182 126 32 0 161 -1 165 -21 165 -20 0 -21 -3 -18 -130 2 -72
2 -130 -1 -130 -3 0 -43 59 -90 130 -67 102 -90 130 -107 130 -23 0 -23 0 -23
-165z"/>
<path d="M2460 265 l0 -165 85 0 c68 0 85 3 85 15 0 11 -16 15 -67 17 l-68 3
-3 58 c-2 41 1 57 10 58 7 0 35 1 62 2 76 3 71 25 -6 29 l-63 3 -3 58 -3 57
71 0 c56 0 70 3 70 15 0 12 -16 15 -85 15 l-85 0 0 -165z"/>
</g>
</svg>
